# AST/ASF file generated using VICON BodyLanguage
# -----------------------------------------------
:version 1.10
:name VICON
:units
  mass 1.0
  length 0.45
  angle deg
:documentation
   .ast/.asf automatically generated from VICON data using
   VICON BodyBuilder and BodyLanguage model FoxedUp or BRILLIANT.MOD
:root
   order TX TY TZ RX RY RZ
   axis XYZ
   position 0 0 0  
   orientation 0 0 0 
:bonedata
  begin
     id 1 
     name lhipjoint
     direction 0.710188 -0.616876 0.339259 
     length 2.5669 
     axis 0 0 0  XYZ
  end
  begin
     id 2 
     name lfemur
     direction 0.34202 -0.939693 0  
     length 7.12796  
     axis 0 0 20  XYZ
    dof rx ry rz
    limits (-160.0 20.0)
           (-70.0 70.0)
           (-60.0 70.0)
  end
  begin
     id 3 
     name ltibia
     direction 0.34202 -0.939693 0   
     length 7.58108   
     axis 0 0 20   XYZ
    dof rx
    limits (-10.0 170.0)
  end
  begin
     id 4 
     name lfoot
     direction 0.0669471 -0.183936 0.980656   
     length 2.17365   
     axis -90 7.62852e-016 20   XYZ
    dof rx rz
    limits (-45.0 90.0)
           (-70.0 20.0)
  end
  begin
     id 5 
     name ltoes
     direction 1.53508e-011 -4.21705e-011 1   
     length 1.09427   
     axis -90 7.62852e-016 20   XYZ
    dof rx
    limits (-90.0 20.0)
  end
  begin
     id 6 
     name rhipjoint
     direction -0.700191 -0.625589 0.34405   
     length 2.53115  
     axis 0 0 0  XYZ 
  end
  begin
     id 7 
     name rfemur
     direction -0.34202 -0.939693 0   
     length 7.33006   
     axis 0 0 -20   XYZ
    dof rx ry rz
    limits (-160.0 20.0)
           (-70.0 70.0)
           (-70.0 60.0)
  end
  begin
     id 8 
     name rtibia
     direction -0.34202 -0.939693 0   
     length 7.64926   
     axis 0 0 -20   XYZ
    dof rx
    limits (-10.0 170.0)
 end
 begin
     id 9 
     name rfoot
     direction -0.0688927 -0.189281 0.979503   
     length 2.20493  
     axis -90 -7.62852e-016 -20   XYZ
    dof rx rz
    limits (-45.0 90.0)
           (-20.0 70.0)
  end
  begin
     id 10 
     name rtoes
     direction -1.53567e-011 -4.21933e-011 1   
     length 1.10919   
     axis -90 -7.62852e-016 -20   XYZ
    dof rx
    limits (-90.0 20.0)
  end
  begin
     id 11 
     name lowerback
     direction -0.0167868 0.989873 -0.140959   
     length 2.14596   
     axis 0 0 0   XYZ
    dof rx ry rz
    limits (-20.0 45.0)
           (-30.0 30.0)
           (-30.0 30.0)
  end
  begin
     id 12 
     name upperback
     direction 0.0129109 0.998033 0.0613525   
     length 2.10457   
     axis 0 0 0   XYZ
    dof rx ry rz
    limits (-20.0 45.0)
           (-30.0 30.0)
           (-30.0 30.0)
  end
  begin
     id 13 
     name thorax
     direction 0.0177047 0.991119 0.131797   
     length 2.17652   
     axis 0 0 0   XYZ
    dof rx ry rz
    limits (-20.0 45.0)
           (-30.0 30.0)
           (-30.0 30.0)
  end
  begin
     id 14 
     name lowerneck
     direction -0.0336893 0.997548 0.0613464   
     length 1.8912   
     axis 0 0 0   XYZ
    dof rx ry rz
    limits (-20.0 45.0)
           (-30.0 30.0)
           (-30.0 30.0)
  end
  begin
     id 15 
     name upperneck
     direction 0.0435909 0.997179 -0.0611028   
     length 1.8829   
     axis 0 0 0   XYZ
    dof rx ry rz
    limits (-20.0 45.0)
           (-30.0 30.0)
           (-30.0 30.0)
  end
  begin
     id 16
     name head
     direction 0.0175076 0.999444 -0.0283782  
     length 1.93197  
     axis 0 0 0   XYZ
    dof rx ry rz
    limits (-20.0 45.0)
           (-30.0 30.0)
           (-30.0 30.0)
  end
  begin
     id 17 
     name lclavicle
     direction 0.919164 0.389875 0.0559876  
     length 3.60004  
     axis 0 0 0   XYZ
    dof ry rz
    limits (-20.0 10.0)
           (0.0 20.0)
  end
  begin
     id 18 
     name lhumerus
     direction 1 -4.48958e-011 6.89191e-027   
     length 5.43301   
     axis 180 -30 -90   XYZ
    dof rx ry rz
    limits (-60.0 90.0)
           (-90.0 90.0)
           (-90.0 90.0)
  end
  begin
     id 19
     name lradius
     direction 1 -4.4897e-011 3.24727e-027   
     length 3.15936   
     axis 180 -30 -90   XYZ
    dof rx
    limits (-10.0 170.0)
  end
  begin
     id 20
     name lwrist
     direction 1 -4.4897e-011 9.00228e-027   
     length 1.57968   
     axis -6.29373e-015 90 90   XYZ
    dof ry
    limits (-180.0 0.0)
 end
  begin
     id 21 
     name lhand
     direction 1 -4.48968e-011 1.80042e-026   
     length 0.712827   
     axis -1.14882e-014 90 90   XYZ
    dof rx rz
    limits (-90.0 90.0)
           (-45.0 45.0)
  end
  begin
     id 22 
     name lfingers
     direction 1 -4.49019e-011 3.60267e-026   
     length 0.574699   
     axis -2.29769e-014 90 90   XYZ
    dof rx
    limits (0.0 90.0)
  end
  begin
     id 23
     name lthumb
     direction 0.707107 -6.3498e-011 0.707107   
     length 0.825157   
     axis -90 45 5.37419e-014   XYZ
    dof rx rz
    limits (-45.0 45.0)
           (-45.0 45.0)
  end
  begin
     id 24 
     name rclavicle
     direction -0.890334 0.455305 -0.00132111   
     length 3.51494  
     axis 0 0 0   XYZ 
    dof ry rz
    limits (-10.0 20.0)
           (-20.0 0.0)
  end
  begin
     id 25 
     name rhumerus
     direction -1 -4.48967e-011 5.07175e-028  
     length 5.34194   
     axis 180 30 90   XYZ
    dof rx ry rz
    limits (-90.0 60.0)
           (-90.0 90.0)
           (-90.0 90.0)
  end
  begin
     id 26 
     name rradius
     direction -1 -4.48955e-011 3.30467e-027   
     length 3.19351   
     axis 180 30 90   XYZ
    dof rx
    limits (-10.0 170.0)
  end
  begin
     id 27 
     name rwrist
     direction -1 -4.48968e-011 9.00208e-027   
     length 1.59676   
     axis -6.29373e-015 -90 -90   XYZ
    dof ry
    limits (-180.0 0.0)
  end
  begin
     id 28
     name rhand
     direction -1 -4.49e-011 1.80099e-026   
     length 0.743862   
     axis -1.14882e-014 -90 -90   XYZ
    dof rx rz
    limits (-90.0 90.0)
           (-45.0 45.0)
  end
  begin
     id 29
     name rfingers
     direction -1 -4.49009e-011 3.6023e-026   
     length 0.599721   
     axis -2.29769e-014 -90 -90   XYZ
    dof rx
    limits (0.0 90.0)
  end
  begin
     id 30
     name rthumb
     direction -0.707107 -6.35025e-011 0.707107   
     length 0.861083   
     axis -90 -45 -5.37419e-014   XYZ
    dof rx rz
    limits (-45.0 45.0)
           (-45.0 45.0)
  end
:hierarchy
  begin
    root lhipjoint rhipjoint lowerback
    lhipjoint lfemur
    lfemur ltibia
    ltibia lfoot
    lfoot ltoes
    rhipjoint rfemur
    rfemur rtibia
    rtibia rfoot
    rfoot rtoes
    lowerback upperback
    upperback thorax
    thorax lowerneck lclavicle rclavicle
    lowerneck upperneck
    upperneck head
    lclavicle lhumerus
    lhumerus lradius
    lradius lwrist
    lwrist lhand lthumb
    lhand lfingers
    rclavicle rhumerus
    rhumerus rradius
    rradius rwrist
    rwrist rhand rthumb
    rhand rfingers
  end

#!OML:ASF H:\Martial Arts Walks\Project 1\Capture day 1\Session 1\male.ASF
:FULLY-SPECIFIED
:DEGREES
430
root -1.27911 13.7554 -7.13886 -6.56243 -30.7966 -12.7359
lowerback 19.7244 5.7889 7.18916
upperback 2.05246 9.5907 5.0052
thorax -8.44162 4.40796 -1.09201
lowerneck -2.92404 1.0946 -3.28238
upperneck 9.75286 1.19953 5.0559
head 3.65034 0.675197 2.31564
rclavicle -3.52051e-014 -2.5842e-014
rhumerus -36.94 19.0854 -78.7612
rradius 56.6368
rwrist 17.0178
rhand -5.61748 -44.2911
rfingers 7.12502
rthumb 20.2 -73.2608
lclavicle -3.52051e-014 -2.5842e-014
lhumerus -34.7923 -14.4629 88.5258
lradius 23.0874
lwrist -27.4686
lhand -18.1078 9.30687
lfingers 7.12502
lthumb 8.16629 39.1291
rfemur 1.13343 -6.76489 12.5524
rtibia 66.0658
rfoot -33.9072 -27.4811
rtoes -10.1313
lfemur -45.7868 23.2393 4.11721
ltibia 61.1322
lfoot 5.12989 -1.82122
ltoes 6.04387
431
root -1.25321 13.7863 -7.03068 -6.27828 -30.9807 -12.2344
lowerback 19.4308 6.06508 6.5598
upperback 1.97107 9.79891 4.94448
thorax -8.45398 4.5318 -0.845358
lowerneck -2.72812 1.17756 -3.21117
upperneck 9.2762 1.31581 5.08372
head 3.44036 0.733267 2.30217
rclavicle -1.84466e-014 3.03147e-014
rhumerus -37.4936 18.9918 -78.2487
rradius 56.3825
rwrist 17.2751
rhand -5.64126 -43.9043
rfingers 7.12502
rthumb 20.1772 -72.8764
lclavicle -1.84466e-014 3.03147e-014
lhumerus -34.1778 -14.6734 88.4816
lradius 24.5374
lwrist -22.9256
lhand -21.0284 12.1886
lfingers 7.12502
lthumb 5.34696 42.1011
rfemur 1.11443 -6.59476 11.8004
rtibia 65.4117
rfoot -33.6329 -27.3491
rtoes -9.98708
lfemur -46.1016 23.9744 3.27316
ltibia 61.5857
lfoot 4.36091 -1.93549
ltoes 6.75709
432
root -1.22985 13.8161 -6.92616 -5.98792 -31.1225 -11.7915
lowerback 19.0717 6.29618 6.02817
upperback 1.9172 9.95986 4.85251
thorax -8.38262 4.63354 -0.662086
lowerneck -2.55079 1.22734 -3.07166
upperneck 8.89075 1.38007 5.12607
head 3.26993 0.768338 2.28158
rclavicle -2.44132e-014 -2.06736e-014
rhumerus -37.8936 18.8839 -77.8478
rradius 56.0731
rwrist 17.2453
rhand -5.52599 -43.7155
rfingers 7.12502
rthumb 20.288 -72.6759
lclavicle -2.44132e-014 -2.06736e-014
lhumerus -33.4676 -14.5707 88.1389
lradius 26.0154
lwrist -19.2991
lhand -21.0921 14.2525
lfingers 7.12502
lthumb 5.28545 44.1666
rfemur 1.17847 -6.45742 11.092
rtibia 64.6729
rfoot -33.3664 -27.1852
rtoes -10.2879
lfemur -46.4078 24.7307 2.42639
ltibia 61.9655
lfoot 3.58968 -2.09444
ltoes 7.03964
433
root -1.20842 13.8448 -6.82686 -5.63316 -31.219 -11.495
lowerback 18.7619 6.46944 5.588
upperback 1.81122 10.0798 4.79344
thorax -8.38979 4.70846 -0.490912
lowerneck -2.40135 1.25775 -2.91508
upperneck 8.71467 1.41251 5.157
head 3.17946 0.788283 2.25802
rclavicle 7.07208e-014 9.64106e-015
rhumerus -38.2653 18.9287 -77.5633
rradius 55.6641
rwrist 16.8943
rhand -5.5488 -43.4431
rfingers 7.12502
rthumb 20.266 -72.4058
lclavicle 7.07208e-014 9.64106e-015
lhumerus -32.9113 -14.4518 87.7756
lradius 27.3324
lwrist -16.8144
lhand -20.9357 15.1932
lfingers 7.12502
lthumb 5.43646 45.1035
rfemur 1.28851 -6.39945 10.5233
rtibia 63.8576
rfoot -32.9546 -27.1354
rtoes -11.1145
lfemur -46.7711 25.4139 1.70774
ltibia 62.3067
lfoot 2.90096 -2.20932
ltoes 7.46084
434
root -1.18788 13.8719 -6.72824 -5.19354 -31.25 -11.3587
lowerback 18.3615 6.55331 5.36437
upperback 1.70157 10.12 4.73348
thorax -8.31673 4.74096 -0.404935
lowerneck -2.27514 1.27905 -2.8537
upperneck 8.69606 1.42407 5.3003
head 3.14871 0.799365 2.29291
rclavicle 4.1956e-014 2.98177e-016
rhumerus -38.5081 19.0952 -77.3894
rradius 55.1334
rwrist 16.2451
rhand -5.64577 -43.1506
rfingers 7.12502
rthumb 20.1728 -72.1232
lclavicle 4.1956e-014 2.98177e-016
lhumerus -32.4625 -14.2417 87.3524
lradius 28.5031
lwrist -15.0819
lhand -21.2892 16.4411
lfingers 7.12502
lthumb 5.09507 46.3598
rfemur 1.45322 -6.41663 10.0956
rtibia 62.9892
rfoot -32.5629 -27.0813
rtoes -11.826
lfemur -47.1958 25.9963 1.12916
ltibia 62.6947
lfoot 2.18726 -2.33651
ltoes 8.04954
435
root -1.16917 13.8974 -6.63289 -4.73726 -31.1391 -11.2418
lowerback 17.9262 6.57353 5.23504
upperback 1.58764 10.0899 4.63168
thorax -8.20613 4.73704 -0.39195
lowerneck -2.2438 1.24681 -2.71412
upperneck 8.78964 1.36313 5.37025
head 3.17796 0.776159 2.29073
rclavicle -7.76068e-014 5.56597e-015
rhumerus -38.5345 19.1502 -77.2822
rradius 54.414
rwrist 15.5218
rhand -5.77382 -43.0317
rfingers 7.12502
rthumb 20.0498 -72.0172
lclavicle -7.76068e-014 5.56597e-015
lhumerus -31.9738 -14.0036 86.8786
lradius 29.6474
lwrist -13.2622
lhand -21.5145 18.5116
lfingers 7.12502
lthumb 4.87754 48.4354
rfemur 1.66609 -6.61258 9.64138
rtibia 62.0877
rfoot -32.1985 -26.9534
rtoes -12.5075
lfemur -47.7029 26.3706 0.545923
ltibia 63.106
lfoot 1.50757 -2.40721
ltoes 8.53998
436
root -1.14926 13.9093 -6.54468 -4.18623 -30.9406 -11.4272
lowerback 17.6325 6.49947 5.40619
upperback 1.44883 10.0109 4.58204
thorax -8.16032 4.69475 -0.490329
lowerneck -2.2717 1.23392 -2.63538
upperneck 8.96363 1.32475 5.49249
head 3.24515 0.765349 2.32088
rclavicle -7.85759e-014 -4.8901e-014
rhumerus -38.5636 19.1941 -77.2421
rradius 53.7318
rwrist 14.8804
rhand -5.80537 -42.8887
rfingers 7.12502
rthumb 20.0194 -71.8774
lclavicle -7.85759e-014 -4.8901e-014
lhumerus -31.53 -14.1234 86.5433
lradius 30.7414
lwrist -11.13
lhand -22.9422 20.9485
lfingers 7.12502
lthumb 3.49891 50.8995
rfemur 1.91441 -6.79258 9.52882
rtibia 61.1947
rfoot -31.8273 -26.8267
rtoes -13.3584
lfemur -48.359 26.6582 0.226801
ltibia 63.5865
lfoot 0.95752 -2.58017
ltoes 8.91105
437
root -1.13117 13.9263 -6.46073 -3.67461 -30.7047 -11.6888
lowerback 17.4257 6.40889 5.69426
upperback 1.31463 9.93895 4.54949
thorax -8.14089 4.6497 -0.644589
lowerneck -2.31816 1.18079 -2.58108
upperneck 9.14622 1.23791 5.55823
head 3.32132 0.728199 2.33541
rclavicle 3.54085e-014 -4.57205e-014
rhumerus -38.5464 19.1429 -77.1995
rradius 53.0431
rwrist 14.2814
rhand -5.88365 -42.8296
rfingers 7.12502
rthumb 19.9442 -71.8262
lclavicle 3.54085e-014 -4.57205e-014
lhumerus -31.1334 -14.2992 86.2669
lradius 31.8914
lwrist -8.88703
lhand -24.3926 22.8665
lfingers 7.12502
lthumb 2.09817 52.8359
rfemur 2.24827 -7.01164 9.50218
rtibia 60.2691
rfoot -31.3511 -26.793
rtoes -14.2814
lfemur -48.9185 26.8471 0.0234082
ltibia 64.0606
lfoot 0.391946 -2.75671
ltoes 9.09555
438
root -1.11467 13.9413 -6.38289 -3.09871 -30.4237 -12.1697
lowerback 17.2945 6.27365 6.15695
upperback 1.18606 9.85087 4.57981
thorax -8.1411 4.58939 -0.830347
lowerneck -2.4162 1.14806 -2.4726
upperneck 9.29256 1.18592 5.52502
head 3.39316 0.707183 2.3076
rclavicle -5.99243e-014 1.30204e-014
rhumerus -38.5073 19.0731 -77.1637
rradius 52.459
rwrist 13.7746
rhand -6.18791 -42.7247
rfingers 7.12502
rthumb 19.6517 -71.7514
lclavicle -5.99243e-014 1.30204e-014
lhumerus -30.7073 -14.4917 86.0165
lradius 33.0676
lwrist -6.44133
lhand -24.9183 24.0841
lfingers 7.12502
lthumb 1.59045 54.0579
rfemur 2.61676 -7.20794 9.76252
rtibia 59.3399
rfoot -30.9846 -26.7131
rtoes -14.6816
lfemur -49.5188 27.0113 0.0315989
ltibia 64.5375
lfoot -0.0660261 -2.99206
ltoes 9.51107
439
root -1.09971 13.9547 -6.30794 -2.63609 -30.1617 -12.7173
lowerback 17.2618 6.1456 6.70754
upperback 1.11415 9.79491 4.6544
thorax -8.12731 4.54185 -1.03105
lowerneck -2.43715 1.11084 -2.4501
upperneck 9.312 1.1369 5.49234
head 3.40615 0.682861 2.29156
rclavicle 1.08058e-014 -8.74653e-015
rhumerus -38.5423 18.9768 -77.0761
rradius 52.0593
rwrist 13.2943
rhand -6.122 -42.565
rfingers 7.12502
rthumb 19.7151 -71.5852
lclavicle 1.08058e-014 -8.74653e-015
lhumerus -30.2652 -14.5925 85.8016
lradius 34.189
lwrist -4.29634
lhand -25.1222 24.4614
lfingers 7.12502
lthumb 1.39356 54.4366
rfemur 3.13906 -7.33667 10.1204
rtibia 58.3963
rfoot -30.6671 -26.64
rtoes -14.9648
lfemur -49.9393 27.145 0.217571
ltibia 64.9923
lfoot -0.487212 -3.23829
ltoes 9.95216
440
root -1.08681 13.9676 -6.23698 -2.18946 -29.912 -13.3086
lowerback 17.2649 6.02613 7.24735
upperback 1.04581 9.75476 4.76439
thorax -8.13823 4.50128 -1.19599
lowerneck -2.46667 1.05772 -2.37438
upperneck 9.2965 1.07161 5.3834
head 3.40915 0.649379 2.23874
rclavicle -2.66216e-014 6.36111e-015
rhumerus -38.5893 18.8873 -76.9844
rradius 51.7559
rwrist 12.8704
rhand -5.71914 -42.4737
rfingers 7.12502
rthumb 20.1023 -71.4537
lclavicle -2.66216e-014 6.36111e-015
lhumerus -29.8268 -14.69 85.6142
lradius 35.1934
lwrist -2.5419
lhand -25.0074 24.6224
lfingers 7.12502
lthumb 1.50446 54.5968
rfemur 3.69161 -7.49473 10.5212
rtibia 57.4646
rfoot -30.4343 -26.4942
rtoes -15.1982
lfemur -50.3017 27.3044 0.464899
ltibia 65.4186
lfoot -0.911229 -3.50007
ltoes 10.1381
441
root -1.07492 13.9784 -6.17155 -1.79498 -29.7258 -13.8794
lowerback 17.2982 5.92342 7.71237
upperback 1.00696 9.72605 4.90738
thorax -8.15209 4.46946 -1.2905
lowerneck -2.5065 1.05605 -2.35162
upperneck 9.25121 1.07624 5.31624
head 3.40067 0.65018 2.21168
rclavicle 8.51109e-014 8.88567e-014
rhumerus -38.5968 18.903 -76.8709
rradius 51.53
rwrist 12.4828
rhand -5.93188 -41.8743
rfingers 7.12502
rthumb 19.8978 -70.8757
lclavicle 8.51109e-014 8.88567e-014
lhumerus -29.4023 -14.6027 85.4377
lradius 35.9826
lwrist -1.5971
lhand -25.3417 23.5225
lfingers 7.12502
lthumb 1.18154 53.4989
rfemur 4.22372 -7.59355 10.9394
rtibia 56.5715
rfoot -30.181 -26.4154
rtoes -15.2954
lfemur -50.5866 27.4997 0.745118
ltibia 65.8196
lfoot -1.32967 -3.73071
ltoes 10.1317
